<svg width="274" height="50" viewBox="0 0 274 50" fill="none" xmlns="http://www.w3.org/2000/svg">
<path d="M78.55 16.45V28.4C78.55 30.25 78.025 31.675 76.975 32.675C75.9417 33.675 74.5417 34.175 72.775 34.175C70.925 34.175 69.4417 33.65 68.325 32.6C67.2083 31.55 66.65 30.0583 66.65 28.125H70.9C70.9 28.8583 71.05 29.4167 71.35 29.8C71.65 30.1667 72.0833 30.35 72.65 30.35C73.1667 30.35 73.5667 30.1833 73.85 29.85C74.1333 29.5167 74.275 29.0333 74.275 28.4V16.45H78.55ZM90.8531 34.2C89.4865 34.2 88.2531 33.9083 87.1531 33.325C86.0698 32.7417 85.2115 31.9083 84.5781 30.825C83.9615 29.7417 83.6531 28.475 83.6531 27.025C83.6531 25.5917 83.9698 24.3333 84.6031 23.25C85.2365 22.15 86.1031 21.3083 87.2031 20.725C88.3031 20.1417 89.5365 19.85 90.9031 19.85C92.2698 19.85 93.5031 20.1417 94.6031 20.725C95.7031 21.3083 96.5698 22.15 97.2031 23.25C97.8365 24.3333 98.1531 25.5917 98.1531 27.025C98.1531 28.4583 97.8281 29.725 97.1781 30.825C96.5448 31.9083 95.6698 32.7417 94.5531 33.325C93.4531 33.9083 92.2198 34.2 90.8531 34.2ZM90.8531 30.5C91.6698 30.5 92.3615 30.2 92.9281 29.6C93.5115 29 93.8031 28.1417 93.8031 27.025C93.8031 25.9083 93.5198 25.05 92.9531 24.45C92.4031 23.85 91.7198 23.55 90.9031 23.55C90.0698 23.55 89.3781 23.85 88.8281 24.45C88.2781 25.0333 88.0031 25.8917 88.0031 27.025C88.0031 28.1417 88.2698 29 88.8031 29.6C89.3531 30.2 90.0365 30.5 90.8531 30.5ZM107.196 22.025C107.596 21.375 108.171 20.85 108.921 20.45C109.671 20.05 110.529 19.85 111.496 19.85C112.646 19.85 113.688 20.1417 114.621 20.725C115.554 21.3083 116.288 22.1417 116.821 23.225C117.371 24.3083 117.646 25.5667 117.646 27C117.646 28.4333 117.371 29.7 116.821 30.8C116.288 31.8833 115.554 32.725 114.621 33.325C113.688 33.9083 112.646 34.2 111.496 34.2C110.513 34.2 109.654 34.0083 108.921 33.625C108.188 33.225 107.613 32.7 107.196 32.05V34H102.921V15.5H107.196V22.025ZM113.296 27C113.296 25.9333 112.996 25.1 112.396 24.5C111.813 23.8833 111.088 23.575 110.221 23.575C109.371 23.575 108.646 23.8833 108.046 24.5C107.463 25.1167 107.171 25.9583 107.171 27.025C107.171 28.0917 107.463 28.9333 108.046 29.55C108.646 30.1667 109.371 30.475 110.221 30.475C111.071 30.475 111.796 30.1667 112.396 29.55C112.996 28.9167 113.296 28.0667 113.296 27ZM126.664 22.025C127.081 21.375 127.656 20.85 128.389 20.45C129.122 20.05 129.981 19.85 130.964 19.85C132.114 19.85 133.156 20.1417 134.089 20.725C135.022 21.3083 135.756 22.1417 136.289 23.225C136.839 24.3083 137.114 25.5667 137.114 27C137.114 28.4333 136.839 29.7 136.289 30.8C135.756 31.8833 135.022 32.725 134.089 33.325C133.156 33.9083 132.114 34.2 130.964 34.2C129.997 34.2 129.139 34 128.389 33.6C127.656 33.2 127.081 32.6833 126.664 32.05V40.65H122.389V20.05H126.664V22.025ZM132.764 27C132.764 25.9333 132.464 25.1 131.864 24.5C131.281 23.8833 130.556 23.575 129.689 23.575C128.839 23.575 128.114 23.8833 127.514 24.5C126.931 25.1167 126.639 25.9583 126.639 27.025C126.639 28.0917 126.931 28.9333 127.514 29.55C128.114 30.1667 128.839 30.475 129.689 30.475C130.539 30.475 131.264 30.1667 131.864 29.55C132.464 28.9167 132.764 28.0667 132.764 27ZM148.207 34.2C146.84 34.2 145.607 33.9083 144.507 33.325C143.423 32.7417 142.565 31.9083 141.932 30.825C141.315 29.7417 141.007 28.475 141.007 27.025C141.007 25.5917 141.323 24.3333 141.957 23.25C142.59 22.15 143.457 21.3083 144.557 20.725C145.657 20.1417 146.89 19.85 148.257 19.85C149.623 19.85 150.857 20.1417 151.957 20.725C153.057 21.3083 153.923 22.15 154.557 23.25C155.19 24.3333 155.507 25.5917 155.507 27.025C155.507 28.4583 155.182 29.725 154.532 30.825C153.898 31.9083 153.023 32.7417 151.907 33.325C150.807 33.9083 149.573 34.2 148.207 34.2ZM148.207 30.5C149.023 30.5 149.715 30.2 150.282 29.6C150.865 29 151.157 28.1417 151.157 27.025C151.157 25.9083 150.873 25.05 150.307 24.45C149.757 23.85 149.073 23.55 148.257 23.55C147.423 23.55 146.732 23.85 146.182 24.45C145.632 25.0333 145.357 25.8917 145.357 27.025C145.357 28.1417 145.623 29 146.157 29.6C146.707 30.2 147.39 30.5 148.207 30.5ZM164.55 22.375C165.05 21.6083 165.675 21.0083 166.425 20.575C167.175 20.125 168.008 19.9 168.925 19.9V24.425H167.75C166.683 24.425 165.883 24.6583 165.35 25.125C164.816 25.575 164.55 26.375 164.55 27.525V34H160.275V20.05H164.55V22.375ZM181.243 30.375V34H179.068C177.518 34 176.31 33.625 175.443 32.875C174.576 32.1083 174.143 30.8667 174.143 29.15V23.6H172.443V20.05H174.143V16.65H178.418V20.05H181.218V23.6H178.418V29.2C178.418 29.6167 178.518 29.9167 178.718 30.1C178.918 30.2833 179.251 30.375 179.718 30.375H181.243ZM199.899 20.05V34H195.624V32.1C195.191 32.7167 194.599 33.2167 193.849 33.6C193.116 33.9667 192.299 34.15 191.399 34.15C190.333 34.15 189.391 33.9167 188.574 33.45C187.758 32.9667 187.124 32.275 186.674 31.375C186.224 30.475 185.999 29.4167 185.999 28.2V20.05H190.249V27.625C190.249 28.5583 190.491 29.2833 190.974 29.8C191.458 30.3167 192.108 30.575 192.924 30.575C193.758 30.575 194.416 30.3167 194.899 29.8C195.383 29.2833 195.624 28.5583 195.624 27.625V20.05H199.899ZM213.97 19.9C215.603 19.9 216.903 20.4333 217.87 21.5C218.853 22.55 219.345 24 219.345 25.85V34H215.095V26.425C215.095 25.4917 214.853 24.7667 214.37 24.25C213.887 23.7333 213.237 23.475 212.42 23.475C211.603 23.475 210.953 23.7333 210.47 24.25C209.987 24.7667 209.745 25.4917 209.745 26.425V34H205.47V20.05H209.745V21.9C210.178 21.2833 210.762 20.8 211.495 20.45C212.228 20.0833 213.053 19.9 213.97 19.9ZM237.966 26.8C237.966 27.2 237.941 27.6167 237.891 28.05H228.216C228.282 28.9167 228.557 29.5833 229.041 30.05C229.541 30.5 230.149 30.725 230.866 30.725C231.932 30.725 232.674 30.275 233.091 29.375H237.641C237.407 30.2917 236.982 31.1167 236.366 31.85C235.766 32.5833 235.007 33.1583 234.091 33.575C233.174 33.9917 232.149 34.2 231.016 34.2C229.649 34.2 228.432 33.9083 227.366 33.325C226.299 32.7417 225.466 31.9083 224.866 30.825C224.266 29.7417 223.966 28.475 223.966 27.025C223.966 25.575 224.257 24.3083 224.841 23.225C225.441 22.1417 226.274 21.3083 227.341 20.725C228.407 20.1417 229.632 19.85 231.016 19.85C232.366 19.85 233.566 20.1333 234.616 20.7C235.666 21.2667 236.482 22.075 237.066 23.125C237.666 24.175 237.966 25.4 237.966 26.8ZM233.591 25.675C233.591 24.9417 233.341 24.3583 232.841 23.925C232.341 23.4917 231.716 23.275 230.966 23.275C230.249 23.275 229.641 23.4833 229.141 23.9C228.657 24.3167 228.357 24.9083 228.241 25.675H233.591ZM255.871 26.8C255.871 27.2 255.846 27.6167 255.796 28.05H246.121C246.188 28.9167 246.463 29.5833 246.946 30.05C247.446 30.5 248.054 30.725 248.771 30.725C249.838 30.725 250.579 30.275 250.996 29.375H255.546C255.313 30.2917 254.888 31.1167 254.271 31.85C253.671 32.5833 252.913 33.1583 251.996 33.575C251.079 33.9917 250.054 34.2 248.921 34.2C247.554 34.2 246.338 33.9083 245.271 33.325C244.204 32.7417 243.371 31.9083 242.771 30.825C242.171 29.7417 241.871 28.475 241.871 27.025C241.871 25.575 242.163 24.3083 242.746 23.225C243.346 22.1417 244.179 21.3083 245.246 20.725C246.313 20.1417 247.538 19.85 248.921 19.85C250.271 19.85 251.471 20.1333 252.521 20.7C253.571 21.2667 254.388 22.075 254.971 23.125C255.571 24.175 255.871 25.4 255.871 26.8ZM251.496 25.675C251.496 24.9417 251.246 24.3583 250.746 23.925C250.246 23.4917 249.621 23.275 248.871 23.275C248.154 23.275 247.546 23.4833 247.046 23.9C246.563 24.3167 246.263 24.9083 246.146 25.675H251.496ZM264.901 22.375C265.401 21.6083 266.026 21.0083 266.776 20.575C267.526 20.125 268.36 19.9 269.276 19.9V24.425H268.101C267.035 24.425 266.235 24.6583 265.701 25.125C265.168 25.575 264.901 26.375 264.901 27.525V34H260.626V20.05H264.901V22.375Z" fill="#4CA154"/>
<rect width="50" height="50" rx="10" fill="#4CA154"/>
<path d="M26.043 29.2695V9.5625H31.8828V29.2695C31.8828 31.1706 31.4661 32.8047 30.6328 34.1719C29.7995 35.526 28.6602 36.5677 27.2148 37.2969C25.7826 38.026 24.168 38.3906 22.3711 38.3906C20.5091 38.3906 18.862 38.0781 17.4297 37.4531C15.9974 36.8281 14.8711 35.8711 14.0508 34.582C13.2305 33.2799 12.8203 31.6328 12.8203 29.6406H18.6992C18.6992 30.6823 18.8424 31.5091 19.1289 32.1211C19.4284 32.7331 19.8516 33.1693 20.3984 33.4297C20.9453 33.6901 21.6029 33.8203 22.3711 33.8203C23.1133 33.8203 23.7578 33.6445 24.3047 33.293C24.8516 32.9414 25.2747 32.4271 25.5742 31.75C25.8867 31.0729 26.043 30.2461 26.043 29.2695Z" fill="white"/>
</svg>
